<svg xmlns="http://www.w3.org/2000/svg" viewBox="0 0 240 240" fill="none">
  <path d="M120 12 C130 12, 139 17, 145 21 L200 55 C209 60, 216 71, 216 82 L216 158 C216 169, 209 180, 200 185 L145 219 C139 223, 130 228, 120 228 C110 228, 101 223, 95 219 L40 185 C31 180, 24 169, 24 158 L24 82 C24 71, 31 60, 40 55 L95 21 C101 17, 110 12, 120 12Z" fill="#2D3139"/>
  <path d="M105 38 C107 70, 110 82, 155 86 C110 90, 107 104, 105 140 C103 104, 100 90, 50 86 C100 82, 103 70, 105 38Z" fill="white"/>
  <path d="M138 116 L138 176 L155 161 L167 186 L180 179 L168 154 L186 154 Z" fill="white"/>
</svg>
